<svg width="152" height="131" viewBox="0 0 152 131" fill="none" xmlns="http://www.w3.org/2000/svg">
<circle cx="76" cy="58" r="52" fill="#EAECF0"/>
<circle cx="21" cy="25" r="5" fill="#F2F4F7"/>
<circle cx="18" cy="109" r="7" fill="#F2F4F7"/>
<circle cx="145" cy="41" r="7" fill="#F2F4F7"/>
<circle cx="134" cy="14" r="4" fill="#F2F4F7"/>
<g filter="url(#filter0_dd_9513_13915)">
<path d="M76 36.0629L80.536 34.1629L76.0006 36.0951V90.1898L117.796 72.6754V18.5566L118 18.4712L117.796 18.3809V18.29L117.692 18.3346L76.3298 0L34 18.0314L34.2004 18.1175L34 72.0166L76 90.1576L76 36.0629Z" fill="#F9FAFB"/>
<path d="M76 36.0629V90.1576L34 72.0165L34.2004 18.1174L76 36.0629Z" fill="url(#paint0_linear_9513_13915)"/>
<path d="M76.001 36.0951V90.1898L117.797 72.6754V18.29L76.001 36.0951Z" fill="url(#paint1_linear_9513_13915)"/>
<path d="M76 36.0629L118 18.4712L76.3298 0L34 18.0314L76 36.0629Z" fill="#F2F4F7"/>
<path d="M49.832 11.2873L91.6718 29.4986L92.0519 42.7698L103.758 37.9395L103.404 24.5846L60.3266 6.81689L49.832 11.2873Z" fill="#EAECF0"/>
</g>
<rect x="52" y="68" width="48" height="48" rx="24" fill="#B5B6BA"/>
<path d="M81.25 97.25C81.25 98.0456 80.9339 98.8087 80.3713 99.3713C79.8087 99.9339 79.0456 100.25 78.25 100.25C76.9656 100.25 75.7234 99.4128 75.2969 98.2606C75.232 98.0751 75.2425 97.8716 75.3261 97.6937C75.4097 97.5159 75.5598 97.378 75.7441 97.3097C75.9284 97.2414 76.1321 97.2481 76.3115 97.3285C76.4908 97.4088 76.6314 97.5564 76.7031 97.7394C76.9131 98.3066 77.5938 98.75 78.25 98.75C78.6478 98.75 79.0294 98.592 79.3107 98.3107C79.592 98.0294 79.75 97.6478 79.75 97.25C79.75 96.8522 79.592 96.4706 79.3107 96.1893C79.0294 95.908 78.6478 95.75 78.25 95.75H67.75C67.5511 95.75 67.3603 95.671 67.2197 95.5303C67.079 95.3897 67 95.1989 67 95C67 94.8011 67.079 94.6103 67.2197 94.4697C67.3603 94.329 67.5511 94.25 67.75 94.25H78.25C79.0456 94.25 79.8087 94.5661 80.3713 95.1287C80.9339 95.6913 81.25 96.4544 81.25 97.25ZM75.25 89.75C76.0456 89.75 76.8087 89.4339 77.3713 88.8713C77.9339 88.3087 78.25 87.5456 78.25 86.75C78.25 85.9544 77.9339 85.1913 77.3713 84.6287C76.8087 84.0661 76.0456 83.75 75.25 83.75C73.9656 83.75 72.7234 84.5872 72.2969 85.7394C72.232 85.9249 72.2425 86.1284 72.3261 86.3063C72.4097 86.4841 72.5598 86.622 72.7441 86.6903C72.9284 86.7586 73.1321 86.7519 73.3115 86.6715C73.4908 86.5912 73.6314 86.4436 73.7031 86.2606C73.9131 85.6934 74.5938 85.25 75.25 85.25C75.6478 85.25 76.0294 85.408 76.3107 85.6893C76.592 85.9706 76.75 86.3522 76.75 86.75C76.75 87.1478 76.592 87.5294 76.3107 87.8107C76.0294 88.092 75.6478 88.25 75.25 88.25H66.25C66.0511 88.25 65.8603 88.329 65.7197 88.4697C65.579 88.6103 65.5 88.8011 65.5 89C65.5 89.1989 65.579 89.3897 65.7197 89.5303C65.8603 89.671 66.0511 89.75 66.25 89.75H75.25ZM83.5 86.75C82.2156 86.75 80.9734 87.5872 80.5469 88.7394C80.482 88.9249 80.4925 89.1284 80.5761 89.3063C80.6597 89.4841 80.8098 89.622 80.9941 89.6903C81.1784 89.7586 81.3821 89.7519 81.5615 89.6715C81.7408 89.5912 81.8814 89.4436 81.9531 89.2606C82.1631 88.6934 82.8438 88.25 83.5 88.25C83.8978 88.25 84.2794 88.408 84.5607 88.6893C84.842 88.9706 85 89.3522 85 89.75C85 90.1478 84.842 90.5294 84.5607 90.8107C84.2794 91.092 83.8978 91.25 83.5 91.25H67C66.8011 91.25 66.6103 91.329 66.4697 91.4697C66.329 91.6103 66.25 91.8011 66.25 92C66.25 92.1989 66.329 92.3897 66.4697 92.5303C66.6103 92.671 66.8011 92.75 67 92.75H83.5C84.2956 92.75 85.0587 92.4339 85.6213 91.8713C86.1839 91.3087 86.5 90.5456 86.5 89.75C86.5 88.9544 86.1839 88.1913 85.6213 87.6287C85.0587 87.0661 84.2956 86.75 83.5 86.75Z" fill="#F7F7F8"/>
<defs>
<filter id="filter0_dd_9513_13915" x="14" y="0" width="124" height="130.19" filterUnits="userSpaceOnUse" color-interpolation-filters="sRGB">
<feFlood flood-opacity="0" result="BackgroundImageFix"/>
<feColorMatrix in="SourceAlpha" type="matrix" values="0 0 0 0 0 0 0 0 0 0 0 0 0 0 0 0 0 0 127 0" result="hardAlpha"/>
<feMorphology radius="4" operator="erode" in="SourceAlpha" result="effect1_dropShadow_9513_13915"/>
<feOffset dy="8"/>
<feGaussianBlur stdDeviation="4"/>
<feColorMatrix type="matrix" values="0 0 0 0 0.0627451 0 0 0 0 0.0941176 0 0 0 0 0.156863 0 0 0 0.03 0"/>
<feBlend mode="normal" in2="BackgroundImageFix" result="effect1_dropShadow_9513_13915"/>
<feColorMatrix in="SourceAlpha" type="matrix" values="0 0 0 0 0 0 0 0 0 0 0 0 0 0 0 0 0 0 127 0" result="hardAlpha"/>
<feMorphology radius="4" operator="erode" in="SourceAlpha" result="effect2_dropShadow_9513_13915"/>
<feOffset dy="20"/>
<feGaussianBlur stdDeviation="12"/>
<feColorMatrix type="matrix" values="0 0 0 0 0.0627451 0 0 0 0 0.0941176 0 0 0 0 0.156863 0 0 0 0.08 0"/>
<feBlend mode="normal" in2="effect1_dropShadow_9513_13915" result="effect2_dropShadow_9513_13915"/>
<feBlend mode="normal" in="SourceGraphic" in2="effect2_dropShadow_9513_13915" result="shape"/>
</filter>
<linearGradient id="paint0_linear_9513_13915" x1="34" y1="72.2884" x2="50.587" y2="27.3665" gradientUnits="userSpaceOnUse">
<stop stop-color="#DEE1E8"/>
<stop offset="1" stop-color="#EFF1F5"/>
</linearGradient>
<linearGradient id="paint1_linear_9513_13915" x1="76.0004" y1="37.1539" x2="123.359" y2="46.5826" gradientUnits="userSpaceOnUse">
<stop stop-color="#E4E7EC"/>
<stop offset="1" stop-color="#F2F4F7"/>
</linearGradient>
</defs>
</svg>
