<svg width="104" height="62" viewBox="0 0 104 62" fill="none" xmlns="http://www.w3.org/2000/svg">
<g clip-path="url(#clip0_9534_29432)">
<path d="M80.4758 25.0667C79.7649 24.5781 78.8307 24.3391 77.6802 24.3402L52.5391 24.5156L53.3841 29.6701L76.2782 29.5136C77.4274 29.5042 78.4914 29.236 79.4774 28.6994C80.4633 28.1627 81.0528 27.5462 81.2455 26.8498C81.4465 26.152 81.1866 25.5553 80.4758 25.0667Z" fill="#FFECD9" stroke="#CC6800" stroke-width="0.420561" stroke-linecap="round" stroke-linejoin="round"/>
<path d="M71.8661 47.0962L74.581 63.6556C75.1623 67.0975 73.5455 70.3883 69.7194 73.513C65.9028 76.6446 61.0049 78.692 55.0355 79.6622C49.0648 80.624 43.7504 80.2338 39.0992 78.4819C34.4549 76.7203 31.8386 74.1234 31.249 70.6828L28.5273 54.082C28.7617 55.4074 29.2839 56.6174 30.1259 57.6982C31.2835 59.1961 33.024 60.4534 35.3638 61.4677C35.6856 61.611 36.0239 61.7515 36.3776 61.8811C41.0288 63.633 46.3432 64.0232 52.3139 63.0614C53.8163 62.8151 55.2566 62.5023 56.6183 62.1256L56.6266 62.1243C58.2886 61.6557 59.8499 61.0928 61.3009 60.4288C63.4108 59.4692 65.3153 58.2961 66.9977 56.9122C67.261 56.6986 67.5147 56.478 67.7531 56.2684C69.6409 54.5781 70.8913 52.8474 71.5127 51.0749C71.9725 49.7722 72.0879 48.4491 71.8661 47.0962Z" fill="#FFECD9" stroke="#CC6800" stroke-width="0.420561" stroke-linecap="round" stroke-linejoin="round"/>
<path d="M92.5431 25.6868L95.2579 42.2461C95.337 42.6764 95.3137 43.1063 95.1908 43.5526C94.9548 44.4522 94.3302 45.3217 93.3158 46.1529L83.9217 53.8384C83.0957 54.5193 82.0314 54.89 80.7286 54.9501C79.4259 55.0103 78.4142 54.7669 77.6925 54.2119C76.9721 53.6652 76.1466 53.1528 75.2311 52.6636C74.4012 52.2286 73.5255 51.8266 72.5793 51.4618L71.8567 47.0544C71.8063 46.7472 71.7406 46.4511 71.6515 46.1674C71.0706 44.1317 69.7077 42.4204 67.5791 41.0306C66.5659 40.3614 65.3699 39.7733 64.0064 39.2553C61.1455 38.1816 58.0356 37.6174 54.6769 37.5629C54.0699 37.5516 53.4574 37.5583 52.8406 37.5913C51.2986 37.648 49.7066 37.8152 48.0701 38.0749C46.6092 38.3144 45.209 38.6122 43.8805 38.9834C39.7692 40.1092 36.2635 41.8602 33.3852 44.2158C29.5603 47.3487 27.942 50.6314 28.5247 54.0816L29.2337 58.4062L27.9712 59.44C27.5278 59.8025 27.1838 60.1486 26.9257 60.4977C26.002 61.5186 24.6993 62.0987 23.0174 62.238C21.3356 62.3774 20.1874 62.0286 19.5715 61.1835L9.44294 46.4533C9.15228 46.0322 8.97772 45.592 8.90424 45.1438L6.18262 28.543C6.2561 28.9912 6.43066 29.4314 6.72131 29.8525L13.2367 39.3364L16.8499 44.5827C17.4658 45.4278 18.614 45.7766 20.2958 45.6372C21.9777 45.4978 23.2804 44.9178 24.2041 43.8969C24.4622 43.5478 24.8061 43.2017 25.2496 42.8392L26.6617 41.6786C30.5779 38.4795 35.2996 36.0858 40.8281 34.5061C42.8554 33.9266 44.9848 33.4496 47.2273 33.0905C47.9992 32.9639 48.7656 32.8553 49.518 32.7661C50.9871 32.5764 52.4254 32.46 53.8319 32.4084C59.5628 32.1678 64.7962 32.9463 69.5303 34.7357C70.5927 35.1326 71.5857 35.575 72.5095 36.0628C73.425 36.552 74.2505 37.0643 74.9709 37.6111C75.6926 38.1661 76.7042 38.4095 78.007 38.3493C79.3098 38.2892 80.3741 37.9185 81.2001 37.2376L88.1888 31.5147L90.5942 29.5521C91.6086 28.7209 92.2331 27.8514 92.4692 26.9518C92.5865 26.5235 92.6111 26.1018 92.5431 25.6868Z" fill="#FFECD9" stroke="#CC6800" stroke-width="0.420561" stroke-linecap="round" stroke-linejoin="round"/>
<path d="M71.6543 46.1677C71.0734 44.132 69.7106 42.4207 67.582 41.0309C66.5688 40.3617 65.3727 39.7736 64.0093 39.2556C61.1483 38.1819 58.0384 37.6177 54.6798 37.5632C54.0727 37.5519 53.4602 37.5586 52.8434 37.5916C51.3015 37.6483 49.7094 37.8155 48.0729 38.0753C46.612 38.3148 45.2117 38.6125 43.8832 38.9837C39.772 40.1095 36.2662 41.8605 33.3879 44.2161C29.5631 47.349 27.9447 50.6317 28.5274 54.0819C28.7618 55.4073 29.284 56.6173 30.126 57.6981C31.2836 59.196 33.0241 60.4533 35.3639 61.4676C35.6857 61.6109 36.024 61.7514 36.3777 61.881C41.0289 63.6329 46.3433 64.0231 52.314 63.0613C53.8164 62.815 55.2567 62.5022 56.6184 62.1255L56.6267 62.1242C58.2887 61.6557 59.85 61.0927 61.301 60.4287C63.4109 59.4691 65.3154 58.296 66.9978 56.9121C67.2611 56.6985 67.5147 56.4779 67.7531 56.2683C69.641 54.578 70.8914 52.8473 71.5128 51.0748C71.9726 49.7721 72.0881 48.449 71.8663 47.0961L71.8595 47.0547C71.8092 46.7475 71.7435 46.4514 71.6543 46.1677ZM58.7849 45.5501L57.9133 46.264L54.3962 49.142L52.4268 50.752L53.0382 54.3765L53.3117 56.0449C53.3868 56.3991 53.2269 56.7235 52.8597 57.0309C52.4911 57.33 52.0037 57.5293 51.3895 57.63C50.7753 57.7307 50.25 57.6974 49.8038 57.5234C49.3507 57.359 49.0942 57.0943 49.0371 56.7457L48.7608 55.0606L48.1425 51.4458C48.084 51.0889 48.1374 50.7391 48.3195 50.3939C48.4042 50.2351 48.5056 50.0736 48.6346 49.9246C48.7678 49.7493 48.9371 49.5852 49.1325 49.4253L53.003 46.2593L55.4226 44.2773C55.7912 43.9782 56.2785 43.7789 56.8927 43.6782C57.507 43.5775 58.0323 43.6108 58.4784 43.7849C58.9316 43.9492 59.1797 44.2153 59.2452 44.5625C59.3037 44.9195 59.1521 45.2427 58.7849 45.5501Z" fill="#FFA64A" stroke="#CC6800" stroke-width="0.420561" stroke-linecap="round" stroke-linejoin="round"/>
<path d="M91.9961 24.3793L79.5863 6.39209C79.3108 6.01109 78.9633 5.65902 78.5437 5.33572C78.1242 5.01241 77.6008 4.73163 76.9833 4.50045C76.3741 4.26791 75.7246 4.10172 75.0542 4.0156C74.3838 3.92947 73.6579 3.86938 72.8629 3.85483L38.2163 4.07147C36.6496 4.08115 35.1542 4.31775 33.7371 4.7717C32.3199 5.22565 31.1039 5.86828 30.0895 6.69942L8.1328 24.6868C7.11703 25.5096 6.49248 26.379 6.24811 27.28C6.13082 27.7083 6.11443 28.1287 6.18247 28.5437C6.25596 28.9919 6.43051 29.4321 6.72117 29.8532L13.2365 39.3372L16.8498 44.5834C17.4656 45.4285 18.6138 45.7773 20.2957 45.6379C21.9775 45.4986 23.2803 44.9185 24.2039 43.8976C24.462 43.5485 24.806 43.2024 25.2494 42.8399L26.6615 41.6793C30.5778 38.4802 35.2995 36.0866 40.8279 34.5068C42.8553 33.9273 44.9847 33.4503 47.2271 33.0912C47.9991 32.9647 48.7654 32.8562 49.5179 32.7669C50.987 32.5772 52.4253 32.4607 53.8317 32.4091C59.5627 32.1685 64.7961 32.947 69.5302 34.7364C70.5925 35.1334 71.5856 35.5757 72.5094 36.0635C73.4249 36.5527 74.2503 37.0651 74.9707 37.6118C75.6925 38.1668 76.7041 38.4102 78.0069 38.35C79.3096 38.2899 80.374 37.9193 81.1999 37.2383L88.1886 31.5154L90.5941 29.5529C91.6085 28.7217 92.233 27.8521 92.4691 26.9525C92.5864 26.5242 92.611 26.1025 92.543 25.6875C92.4695 25.2393 92.2881 24.8087 91.9961 24.3793ZM81.2441 26.8495C81.0515 27.546 80.462 28.1625 79.476 28.6991C78.49 29.2358 77.426 29.504 76.2769 29.5134L53.3827 29.6699L51.1356 29.6888C50.4014 29.6813 49.6866 29.6366 48.9885 29.5379C48.2905 29.4393 47.6328 29.2745 47.0153 29.0433C46.9877 29.0308 46.9613 29.0265 46.942 29.0126C46.3508 28.7856 45.8552 28.5174 45.455 28.208C45.0342 27.8764 44.6866 27.5243 44.4124 27.1516L44.2566 26.93L40.0141 20.7044L35.5167 14.1201C35.1034 13.523 35.1494 12.8677 35.6533 12.1458C36.1668 11.4309 36.9648 10.8908 38.0568 10.5328C39.1488 10.1748 40.2344 10.0906 41.3139 10.2802C42.3933 10.4697 43.1475 10.8574 43.5607 11.4545L49.8612 20.6157L52.5376 24.5154L77.6788 24.34C78.8293 24.3389 79.7636 24.5778 80.4744 25.0665C81.1853 25.5551 81.4451 26.1518 81.2441 26.8495Z" fill="#FFA64A" stroke="#CC6800" stroke-width="0.420561" stroke-linecap="round" stroke-linejoin="round"/>
<path d="M52.539 24.5147L53.3841 29.6693L51.1371 29.6881C50.4028 29.6807 49.688 29.636 48.99 29.5373C48.2919 29.4387 47.6342 29.2738 47.0167 29.0426C46.989 29.0301 46.9627 29.0259 46.9434 29.012C46.3521 28.785 45.8566 28.5168 45.4564 28.2074C45.0355 27.8758 44.688 27.5236 44.4138 27.1509L44.258 26.9293L40.0154 20.7038L35.518 14.1194C35.1048 13.5223 35.1507 12.867 35.6546 12.1451C36.1681 11.4302 36.9662 10.8901 38.0582 10.5321C39.1502 10.1741 40.2357 10.09 41.3152 10.2795C42.3947 10.469 43.1488 10.8568 43.5621 11.4539L49.8627 20.6151L52.539 24.5147Z" fill="#FFECD9" stroke="#CC6800" stroke-width="0.420561" stroke-linecap="round" stroke-linejoin="round"/>
<path d="M59.2427 44.5628C59.3012 44.9197 59.1496 45.243 58.7824 45.5504L57.9108 46.2643L54.3937 49.1423L52.4243 50.7522L53.0356 54.3768L53.3092 56.0452C53.3843 56.3993 53.2244 56.7238 52.8571 57.0312C52.4885 57.3303 52.0012 57.5296 51.3869 57.6303C50.7727 57.731 50.2475 57.6977 49.8013 57.5237C49.3482 57.3593 49.0917 57.0946 49.0345 56.746L48.7583 55.0609L48.14 51.4461C48.0815 51.0892 48.1349 50.7394 48.3169 50.3942C48.4017 50.2354 48.5031 50.0739 48.6321 49.9249C48.7653 49.7496 48.9346 49.5855 49.13 49.4256L53.0004 46.2596L55.4201 44.2776C55.7887 43.9785 56.276 43.7792 56.8902 43.6785C57.5044 43.5778 58.0297 43.6111 58.4759 43.7851C58.929 43.9495 59.1772 44.2156 59.2427 44.5628Z" fill="#FFECD9" stroke="#CC6800" stroke-width="0.420561" stroke-linecap="round" stroke-linejoin="round"/>
<path d="M92.5446 25.6874L92.4834 25.314L92.5446 25.6874Z" fill="#FFECD9"/>
<path d="M92.5446 25.6874L92.4834 25.314" stroke="#CC6800" stroke-width="0.420561" stroke-linecap="round" stroke-linejoin="round"/>
</g>
<defs>
<clipPath id="clip0_9534_29432">
<rect width="90" height="90" fill="white" transform="translate(0 3.56055) rotate(-9.31054)"/>
</clipPath>
</defs>
</svg>
