<svg width="14" height="14" viewBox="0 0 14 14" fill="none" xmlns="http://www.w3.org/2000/svg">
<path d="M13.1252 4.375V8.3125C13.1252 8.42853 13.0792 8.53981 12.9971 8.62186C12.9151 8.70391 12.8038 8.75 12.6877 8.75C12.5717 8.75 12.4604 8.70391 12.3784 8.62186C12.2963 8.53981 12.2502 8.42853 12.2502 8.3125V5.43102L6.87227 10.8095C6.83164 10.8502 6.78339 10.8825 6.73028 10.9045C6.67717 10.9265 6.62024 10.9378 6.56274 10.9378C6.50525 10.9378 6.44832 10.9265 6.39521 10.9045C6.3421 10.8825 6.29384 10.8502 6.25321 10.8095L1.00321 5.55953C0.921119 5.47744 0.875 5.3661 0.875 5.25C0.875 5.1339 0.921119 5.02256 1.00321 4.94047C1.0853 4.85838 1.19665 4.81226 1.31274 4.81226C1.42884 4.81226 1.54018 4.85838 1.62227 4.94047L6.56274 9.88148L11.6317 4.8125H8.75024C8.63421 4.8125 8.52293 4.76641 8.44088 4.68436C8.35884 4.60231 8.31274 4.49103 8.31274 4.375C8.31274 4.25897 8.35884 4.14769 8.44088 4.06564C8.52293 3.98359 8.63421 3.9375 8.75024 3.9375H12.6877C12.8038 3.9375 12.9151 3.98359 12.9971 4.06564C13.0792 4.14769 13.1252 4.25897 13.1252 4.375Z" fill="currentColor"/>
</svg>
