<svg width="20" height="20" viewBox="0 0 20 20" fill="none" xmlns="http://www.w3.org/2000/svg">
<path d="M19.375 16.2504C19.375 16.4162 19.3092 16.5751 19.1919 16.6923C19.0747 16.8095 18.9158 16.8754 18.75 16.8754H1.25C1.08424 16.8754 0.925268 16.8095 0.808058 16.6923C0.690848 16.5751 0.625 16.4162 0.625 16.2504C0.625 16.0846 0.690848 15.9257 0.808058 15.8084C0.925268 15.6912 1.08424 15.6254 1.25 15.6254H18.75C18.9158 15.6254 19.0747 15.6912 19.1919 15.8084C19.3092 15.9257 19.375 16.0846 19.375 16.2504ZM1.27344 7.67071C1.23626 7.53964 1.24294 7.40001 1.29244 7.27308C1.34194 7.14615 1.43156 7.03888 1.54766 6.96758L9.67266 1.96758C9.77111 1.90705 9.88442 1.875 10 1.875C10.1156 1.875 10.2289 1.90705 10.3273 1.96758L18.4523 6.96758C18.5685 7.03879 18.6582 7.14599 18.7078 7.27286C18.7573 7.39974 18.7641 7.53935 18.7271 7.67043C18.69 7.80152 18.6111 7.9169 18.5024 7.99903C18.3938 8.08116 18.2612 8.12553 18.125 8.12539H16.25V13.1254H17.5C17.6658 13.1254 17.8247 13.1912 17.9419 13.3084C18.0592 13.4257 18.125 13.5846 18.125 13.7504C18.125 13.9162 18.0592 14.0751 17.9419 14.1923C17.8247 14.3095 17.6658 14.3754 17.5 14.3754H2.5C2.33424 14.3754 2.17527 14.3095 2.05806 14.1923C1.94085 14.0751 1.875 13.9162 1.875 13.7504C1.875 13.5846 1.94085 13.4257 2.05806 13.3084C2.17527 13.1912 2.33424 13.1254 2.5 13.1254H3.75V8.12539H1.875C1.7389 8.12544 1.6065 8.08106 1.49792 7.99899C1.38935 7.91692 1.31053 7.80166 1.27344 7.67071ZM11.25 12.5004C11.25 12.6662 11.3158 12.8251 11.4331 12.9423C11.5503 13.0595 11.7092 13.1254 11.875 13.1254C12.0408 13.1254 12.1997 13.0595 12.3169 12.9423C12.4342 12.8251 12.5 12.6662 12.5 12.5004V8.75039C12.5 8.58463 12.4342 8.42566 12.3169 8.30845C12.1997 8.19124 12.0408 8.12539 11.875 8.12539C11.7092 8.12539 11.5503 8.19124 11.4331 8.30845C11.3158 8.42566 11.25 8.58463 11.25 8.75039V12.5004ZM7.5 12.5004C7.5 12.6662 7.56585 12.8251 7.68306 12.9423C7.80027 13.0595 7.95924 13.1254 8.125 13.1254C8.29076 13.1254 8.44973 13.0595 8.56694 12.9423C8.68415 12.8251 8.75 12.6662 8.75 12.5004V8.75039C8.75 8.58463 8.68415 8.42566 8.56694 8.30845C8.44973 8.19124 8.29076 8.12539 8.125 8.12539C7.95924 8.12539 7.80027 8.19124 7.68306 8.30845C7.56585 8.42566 7.5 8.58463 7.5 8.75039V12.5004Z" fill="#141415"/>
</svg>
