<svg width="20" height="20" viewBox="0 0 20 20" fill="none" xmlns="http://www.w3.org/2000/svg">
<path d="M10.6249 9.37503V13.75C10.6249 13.9158 10.559 14.0748 10.4418 14.192C10.3246 14.3092 10.1656 14.375 9.99989 14.375C9.83413 14.375 9.67516 14.3092 9.55795 14.192C9.44074 14.0748 9.37489 13.9158 9.37489 13.75V9.37503C9.37489 9.20927 9.44074 9.0503 9.55795 8.93309C9.67516 8.81588 9.83413 8.75003 9.99989 8.75003C10.1656 8.75003 10.3246 8.81588 10.4418 8.93309C10.559 9.0503 10.6249 9.20927 10.6249 9.37503ZM18.739 7.66487L17.6561 15.7907C17.616 16.091 17.4681 16.3665 17.2401 16.5659C17.012 16.7654 16.7193 16.8752 16.4163 16.875H3.58348C3.2805 16.8752 2.98776 16.7654 2.7597 16.5659C2.53164 16.3665 2.38378 16.091 2.34364 15.7907L1.26004 7.66565C1.23643 7.48901 1.25086 7.30936 1.30237 7.13875C1.35388 6.96814 1.44127 6.81052 1.55869 6.67646C1.67611 6.54239 1.82083 6.43498 1.98316 6.36144C2.14549 6.28789 2.32167 6.24991 2.49989 6.25003H5.34129L9.53114 1.46331C9.58979 1.39681 9.66192 1.34354 9.74274 1.30706C9.82356 1.27058 9.91122 1.25171 9.99989 1.25171C10.0886 1.25171 10.1762 1.27058 10.257 1.30706C10.3379 1.34354 10.41 1.39681 10.4686 1.46331L14.6585 6.25003H17.4999C17.6779 6.25014 17.8538 6.28827 18.0159 6.36187C18.178 6.43547 18.3225 6.54284 18.4397 6.67679C18.5569 6.81074 18.6442 6.96818 18.6957 7.13859C18.7472 7.30899 18.7616 7.48842 18.7382 7.66487H18.739ZM7.00223 6.25003H12.9975L9.99989 2.82425L7.00223 6.25003ZM17.4999 7.50003H2.49989L3.58348 15.625H16.4163L17.4999 7.50003ZM13.503 9.31253L13.0655 13.6875C13.0569 13.7694 13.0645 13.8523 13.088 13.9312C13.1114 14.0102 13.1503 14.0837 13.2023 14.1476C13.2542 14.2115 13.3183 14.2645 13.3909 14.3035C13.4634 14.3425 13.5429 14.3668 13.6249 14.375C13.646 14.3762 13.6671 14.3762 13.6882 14.375C13.843 14.3748 13.9922 14.3172 14.1069 14.2133C14.2217 14.1094 14.2938 13.9666 14.3093 13.8125L14.7468 9.43753C14.7633 9.2726 14.7137 9.10784 14.6088 8.97949C14.5039 8.85115 14.3523 8.76973 14.1874 8.75315C14.0225 8.73658 13.8577 8.7862 13.7294 8.8911C13.601 8.99601 13.5196 9.1476 13.503 9.31253ZM6.49676 9.31253C6.48019 9.1476 6.39877 8.99601 6.27043 8.8911C6.14208 8.7862 5.97732 8.73658 5.81239 8.75315C5.64746 8.76973 5.49587 8.85115 5.39096 8.97949C5.28606 9.10784 5.23644 9.2726 5.25301 9.43753L5.69051 13.8125C5.70606 13.9672 5.77871 14.1106 5.89428 14.2146C6.00985 14.3186 6.16003 14.3758 6.31551 14.375C6.33659 14.3762 6.35772 14.3762 6.37879 14.375C6.46046 14.3668 6.53971 14.3426 6.61202 14.3038C6.68433 14.2649 6.74828 14.2122 6.80022 14.1487C6.85217 14.0851 6.89108 14.012 6.91475 13.9334C6.93842 13.8548 6.94638 13.7723 6.93817 13.6907L6.49676 9.31253Z" fill="currentColor"/>
</svg>
