<svg width="16" height="16" viewBox="0 0 16 16" fill="none" xmlns="http://www.w3.org/2000/svg">
<path d="M14.5 7.99925C14.4979 9.58788 13.9151 11.1209 12.8612 12.3097C11.8072 13.4984 10.355 14.2607 8.7781 14.453C8.74298 14.457 8.70743 14.4535 8.67377 14.4427C8.64011 14.4319 8.60912 14.4141 8.58284 14.3905C8.55656 14.3669 8.53559 14.338 8.5213 14.3056C8.50702 14.2733 8.49975 14.2383 8.49997 14.203V9.49925H9.99997C10.0685 9.4994 10.1364 9.48546 10.1993 9.45828C10.2622 9.43111 10.3189 9.39129 10.3658 9.34129C10.4127 9.2913 10.4488 9.2322 10.4719 9.16766C10.4949 9.10312 10.5045 9.03452 10.5 8.96613C10.4889 8.83755 10.4296 8.71793 10.3339 8.63131C10.2383 8.5447 10.1134 8.49751 9.98435 8.49925H8.49997V6.99925C8.49997 6.73404 8.60533 6.47968 8.79286 6.29214C8.9804 6.10461 9.23476 5.99925 9.49997 5.99925H10.5C10.5685 5.9994 10.6364 5.98546 10.6993 5.95828C10.7622 5.93111 10.8189 5.89129 10.8658 5.84129C10.9127 5.7913 10.9488 5.73219 10.9719 5.66766C10.9949 5.60312 11.0045 5.53452 11 5.46613C10.9889 5.33733 10.9294 5.21753 10.8335 5.13088C10.7376 5.04424 10.6123 4.9972 10.4831 4.99925H9.49997C8.96954 4.99925 8.46083 5.20997 8.08576 5.58504C7.71069 5.96011 7.49997 6.46882 7.49997 6.99925V8.49925H5.99997C5.93143 8.4991 5.86358 8.51305 5.80066 8.54022C5.73773 8.56739 5.68106 8.60721 5.63417 8.65721C5.58728 8.7072 5.55117 8.76631 5.52809 8.83085C5.505 8.89539 5.49543 8.96398 5.49997 9.03238C5.51103 9.16117 5.57052 9.28097 5.66645 9.36762C5.76238 9.45427 5.8876 9.50131 6.01685 9.49925H7.49997V14.2043C7.50019 14.2395 7.49293 14.2745 7.47868 14.3067C7.46444 14.339 7.44352 14.3679 7.41731 14.3915C7.3911 14.4151 7.36019 14.4329 7.32661 14.4437C7.29303 14.4545 7.25754 14.4581 7.22247 14.4543C5.60332 14.2571 4.1172 13.4592 3.05827 12.2185C1.99934 10.9779 1.44477 9.3849 1.50435 7.75488C1.62935 4.37988 4.3631 1.63613 7.7406 1.50488C8.61503 1.47101 9.48731 1.61385 10.3053 1.92485C11.1232 2.23586 11.87 2.70865 12.5011 3.31494C13.1321 3.92122 13.6344 4.64855 13.9778 5.45342C14.3213 6.25829 14.4989 7.12417 14.5 7.99925Z" fill="#141415"/>
</svg>
