<svg width="46" height="32" viewBox="0 0 46 32" fill="none" xmlns="http://www.w3.org/2000/svg">
<rect x="0.5" y="0.5" width="45" height="31" rx="5.5" fill="white"/>
<rect x="0.5" y="0.5" width="45" height="31" rx="5.5" stroke="#F2F4F7"/>
<path d="M28.7695 6.70703C33.7627 6.70703 37.8105 10.7069 37.8105 15.6406C37.8104 20.5742 33.7626 24.5732 28.7695 24.5732C26.5311 24.5732 24.4842 23.768 22.9053 22.4365C21.3264 23.768 19.2795 24.5732 17.041 24.5732C12.0479 24.5732 8.00014 20.5742 8 15.6406C8 10.7069 12.0479 6.70703 17.041 6.70703C19.2794 6.70705 21.3264 7.51239 22.9053 8.84375C24.4841 7.51239 26.5312 6.70707 28.7695 6.70703Z" fill="#ED0006"/>
<path d="M28.7695 6.70703C33.7627 6.70703 37.8105 10.7069 37.8105 15.6406C37.8104 20.5742 33.7626 24.5732 28.7695 24.5732C26.5311 24.5732 24.4842 23.768 22.9053 22.4365C24.8482 20.798 26.082 18.3624 26.082 15.6406C26.082 12.9186 24.8484 10.4823 22.9053 8.84375C24.4842 7.51239 26.5312 6.70706 28.7695 6.70703Z" fill="#F9A000"/>
<path d="M22.9043 8.84375C24.8475 10.4822 26.0809 12.9177 26.0811 15.6396C26.0811 18.3616 24.8474 20.797 22.9043 22.4355C20.9617 20.797 19.7285 18.3612 19.7285 15.6396C19.7286 12.9181 20.9616 10.4822 22.9043 8.84375Z" fill="#FF5E00"/>
</svg>
