<svg width="16" height="16" viewBox="0 0 16 16" fill="none" xmlns="http://www.w3.org/2000/svg">
<g clip-path="url(#clip0_10203_22432)">
<path d="M15.3545 4.85403L13.4858 6.72278C13.1083 11.099 9.41764 14.5003 5.00076 14.5003C4.09326 14.5003 3.34514 14.3565 2.77701 14.0728C2.31889 13.8434 2.13139 13.5978 2.08451 13.5278C2.04272 13.4651 2.01562 13.3938 2.00526 13.3192C1.9949 13.2445 2.00154 13.1685 2.02468 13.0968C2.04782 13.0251 2.08686 12.9596 2.13889 12.9051C2.19091 12.8506 2.25458 12.8086 2.32514 12.7822C2.34139 12.7759 3.84014 12.2003 4.79201 11.1047C4.26413 10.6706 3.80331 10.161 3.42451 9.59216C2.64951 8.44153 1.78201 6.44278 2.04951 3.45591C2.05799 3.361 2.09341 3.27049 2.15161 3.19504C2.2098 3.11958 2.28835 3.06233 2.37799 3.03002C2.46763 2.99771 2.56464 2.99169 2.65759 3.01266C2.75054 3.03364 2.83556 3.08073 2.90264 3.14841C2.92451 3.17028 4.98264 5.21716 7.49889 5.88091V5.50028C7.49793 5.10115 7.57684 4.70587 7.73098 4.3377C7.88512 3.96954 8.11136 3.63593 8.39639 3.35653C8.6732 3.08011 9.00257 2.86193 9.36507 2.71487C9.72757 2.56781 10.1159 2.49485 10.507 2.50028C11.0317 2.50546 11.5462 2.64632 12.0004 2.90916C12.4545 3.17201 12.833 3.54789 13.0989 4.00028H15.0008C15.0997 4.0002 15.1965 4.02949 15.2788 4.08442C15.3611 4.13936 15.4252 4.21748 15.4631 4.30889C15.5009 4.4003 15.5109 4.50089 15.4915 4.59794C15.4722 4.69498 15.4245 4.78411 15.3545 4.85403Z" fill="#141415"/>
</g>
<defs>
<clipPath id="clip0_10203_22432">
<rect width="16" height="16" fill="white"/>
</clipPath>
</defs>
</svg>
