<svg width="20" height="20" viewBox="0 0 20 20" fill="none" xmlns="http://www.w3.org/2000/svg">
<path d="M11.2469 12.3187C12.2267 11.7085 12.981 10.7957 13.3959 9.7186C13.8107 8.64147 13.8634 7.45852 13.5461 6.34874C13.2287 5.23897 12.5586 4.26273 11.637 3.56775C10.7154 2.87276 9.59257 2.49683 8.43831 2.49683C7.28405 2.49683 6.16119 2.87276 5.23961 3.56775C4.31804 4.26273 3.64788 5.23897 3.33054 6.34874C3.01319 7.45852 3.06592 8.64147 3.48076 9.7186C3.89559 10.7957 4.64995 11.7085 5.62972 12.3187C4.01643 12.8468 2.56487 13.8335 1.39768 15.2226C1.343 15.2851 1.30133 15.358 1.27511 15.4368C1.24889 15.5156 1.23865 15.5989 1.24499 15.6817C1.25132 15.7645 1.27411 15.8453 1.31202 15.9192C1.34992 15.9931 1.40218 16.0588 1.46575 16.1122C1.52931 16.1657 1.6029 16.206 1.68222 16.2307C1.76153 16.2555 1.84497 16.2641 1.92767 16.2562C2.01037 16.2483 2.09066 16.224 2.16385 16.1847C2.23704 16.1454 2.30166 16.0919 2.35393 16.0273C3.92268 14.1554 6.08362 13.125 8.4344 13.125C10.7852 13.125 12.9461 14.1554 14.518 16.0273C14.6247 16.1543 14.7775 16.2337 14.9428 16.2481C15.108 16.2624 15.2722 16.2106 15.3992 16.1039C15.5263 15.9972 15.6057 15.8444 15.62 15.6791C15.6344 15.5138 15.5825 15.3496 15.4758 15.2226C14.3078 13.8335 12.8563 12.8468 11.2469 12.3187ZM4.3719 7.81245C4.3719 7.00896 4.61016 6.22352 5.05656 5.55545C5.50295 4.88737 6.13743 4.36667 6.87975 4.05919C7.62208 3.75171 8.43891 3.67126 9.22696 3.82801C10.015 3.98476 10.7389 4.37168 11.307 4.93983C11.8752 5.50798 12.2621 6.23185 12.4188 7.0199C12.5756 7.80794 12.4951 8.62478 12.1877 9.3671C11.8802 10.1094 11.3595 10.7439 10.6914 11.1903C10.0233 11.6367 9.23789 11.875 8.4344 11.875C7.35734 11.8737 6.32475 11.4453 5.56315 10.6837C4.80155 9.9221 4.37314 8.88951 4.3719 7.81245ZM19.0789 11.1773L18.7149 10.9671C18.7576 10.741 18.7576 10.5089 18.7149 10.2828L19.0789 10.0726C19.2225 9.98973 19.3273 9.8532 19.3702 9.69306C19.4132 9.53292 19.3907 9.36229 19.3078 9.2187C19.225 9.07511 19.0884 8.97033 18.9283 8.9274C18.7682 8.88447 18.5975 8.90691 18.4539 8.9898L18.0891 9.20073C17.9145 9.05093 17.7137 8.93466 17.4969 8.85776V8.43745C17.4969 8.27169 17.4311 8.11272 17.3138 7.99551C17.1966 7.8783 17.0377 7.81245 16.8719 7.81245C16.7061 7.81245 16.5472 7.8783 16.43 7.99551C16.3128 8.11272 16.2469 8.27169 16.2469 8.43745V8.85776C16.0301 8.93466 15.8293 9.05093 15.6547 9.20073L15.2899 8.9898C15.2188 8.94876 15.1403 8.92212 15.0589 8.91142C14.9775 8.90071 14.8948 8.90614 14.8155 8.9274C14.7362 8.94865 14.6619 8.98532 14.5968 9.0353C14.5316 9.08528 14.477 9.1476 14.436 9.2187C14.3949 9.2898 14.3683 9.36828 14.3576 9.44968C14.3469 9.53107 14.3523 9.61377 14.3736 9.69306C14.3948 9.77236 14.4315 9.84668 14.4815 9.91181C14.5315 9.97693 14.5938 10.0316 14.6649 10.0726L15.0289 10.2828C14.9862 10.5089 14.9862 10.741 15.0289 10.9671L14.6649 11.1773C14.5213 11.2602 14.4165 11.3967 14.3736 11.5568C14.3306 11.717 14.3531 11.8876 14.436 12.0312C14.5188 12.1748 14.6554 12.2796 14.8155 12.3225C14.9756 12.3654 15.1463 12.343 15.2899 12.2601L15.6547 12.0492C15.8293 12.199 16.0301 12.3152 16.2469 12.3921V12.8125C16.2469 12.9782 16.3128 13.1372 16.43 13.2544C16.5472 13.3716 16.7061 13.4375 16.8719 13.4375C17.0377 13.4375 17.1966 13.3716 17.3138 13.2544C17.4311 13.1372 17.4969 12.9782 17.4969 12.8125V12.3921C17.7137 12.3152 17.9145 12.199 18.0891 12.0492L18.4539 12.2601C18.5488 12.3152 18.6567 12.344 18.7664 12.3437C18.9041 12.3438 19.0379 12.2984 19.1471 12.2146C19.2563 12.1309 19.3348 12.0134 19.3704 11.8804C19.406 11.7475 19.3967 11.6065 19.344 11.4794C19.2913 11.3522 19.1982 11.2461 19.0789 11.1773ZM16.2469 10.625C16.2469 10.5013 16.2836 10.3805 16.3522 10.2777C16.4209 10.1749 16.5185 10.0948 16.6327 10.0475C16.7469 10.0002 16.8726 9.98784 16.9938 10.012C17.1151 10.0361 17.2264 10.0956 17.3138 10.183C17.4013 10.2704 17.4608 10.3818 17.4849 10.503C17.509 10.6243 17.4966 10.7499 17.4493 10.8641C17.402 10.9783 17.3219 11.0759 17.2191 11.1446C17.1164 11.2133 16.9955 11.25 16.8719 11.25C16.7061 11.25 16.5472 11.1841 16.43 11.0669C16.3128 10.9497 16.2469 10.7907 16.2469 10.625Z" fill="#888991"/>
</svg>
