<svg width="19" height="18" viewBox="0 0 19 18" fill="none" xmlns="http://www.w3.org/2000/svg">
<g clip-path="url(#clip0_9975_941)">
<path d="M18.3358 9.39797L16.6483 11.0855C16.596 11.1378 16.534 11.1793 16.4657 11.2076C16.3974 11.2359 16.3242 11.2504 16.2503 11.2504C16.1764 11.2504 16.1032 11.2359 16.0349 11.2076C15.9666 11.1793 15.9046 11.1378 15.8523 11.0855L14.1648 9.39797C14.0593 9.29242 14 9.14927 14 9C14 8.85073 14.0593 8.70758 14.1648 8.60203C14.2704 8.49648 14.4135 8.43719 14.5628 8.43719C14.7121 8.43719 14.8552 8.49648 14.9608 8.60203L15.6878 9.32977V9C15.6885 7.68982 15.2732 6.41325 14.5019 5.35419C13.7305 4.29513 12.6429 3.50825 11.3957 3.10691C10.1485 2.70556 8.80612 2.71047 7.56189 3.12092C6.31767 3.53138 5.23584 4.32619 4.47227 5.39086C4.38518 5.51207 4.25351 5.59372 4.10622 5.61786C3.95893 5.64199 3.80809 5.60662 3.68687 5.51953C3.56566 5.43245 3.48401 5.30077 3.45988 5.15348C3.43575 5.0062 3.47112 4.85535 3.5582 4.73414C4.46066 3.47591 5.73921 2.53663 7.20969 2.05159C8.68016 1.56656 10.2667 1.56081 11.7406 2.03519C13.2145 2.50956 14.4999 3.43957 15.4114 4.69123C16.3229 5.94289 16.8136 7.4516 16.8128 9V9.32977L17.5398 8.60203C17.6454 8.49648 17.7885 8.43719 17.9378 8.43719C18.0871 8.43719 18.2302 8.49648 18.3358 8.60203C18.4413 8.70758 18.5006 8.85073 18.5006 9C18.5006 9.14927 18.4413 9.29242 18.3358 9.39797ZM15.4403 13.2652C14.5376 14.5224 13.2592 15.4609 11.7892 15.9453C10.3192 16.4298 8.7334 16.4354 7.26004 15.9612C5.78668 15.487 4.50178 14.5575 3.59029 13.3066C2.67881 12.0557 2.18775 10.5478 2.18781 9V8.67023L1.46078 9.39797C1.35523 9.50352 1.21208 9.56281 1.06281 9.56281C0.913546 9.56281 0.770392 9.50352 0.664844 9.39797C0.559296 9.29242 0.5 9.14927 0.5 9C0.5 8.85073 0.559296 8.70758 0.664844 8.60203L2.35234 6.91453C2.40458 6.86223 2.46662 6.82074 2.53491 6.79244C2.60319 6.76413 2.67639 6.74956 2.75031 6.74956C2.82423 6.74956 2.89743 6.76413 2.96572 6.79244C3.034 6.82074 3.09604 6.86223 3.14828 6.91453L4.83578 8.60203C4.94133 8.70758 5.00063 8.85073 5.00063 9C5.00063 9.14927 4.94133 9.29242 4.83578 9.39797C4.73023 9.50352 4.58708 9.56281 4.43781 9.56281C4.28855 9.56281 4.14539 9.50352 4.03984 9.39797L3.31281 8.67023V9C3.31148 10.5147 3.86817 11.9767 4.87656 13.107C5.50391 12.1979 6.38604 11.4946 7.41203 11.0855C6.86091 10.6514 6.45875 10.0564 6.26149 9.38313C6.06422 8.7099 6.08165 7.99192 6.31135 7.32906C6.54105 6.66619 6.9716 6.09137 7.54314 5.68455C8.11467 5.27772 8.79877 5.05911 9.50031 5.05911C10.2019 5.05911 10.886 5.27772 11.4575 5.68455C12.029 6.09137 12.4596 6.66619 12.6893 7.32906C12.919 7.99192 12.9364 8.7099 12.7391 9.38313C12.5419 10.0564 12.1397 10.6514 11.5886 11.0855C12.6155 11.4946 13.4983 12.1988 14.1255 13.1091C14.2677 12.9493 14.4017 12.7825 14.527 12.6091C14.614 12.4879 14.7457 12.4063 14.893 12.3821C15.0403 12.358 15.1911 12.3934 15.3123 12.4805C15.4336 12.5676 15.5152 12.6992 15.5393 12.8465C15.5635 12.9938 15.5281 13.1446 15.441 13.2659L15.4403 13.2652ZM9.50031 10.6875C9.94532 10.6875 10.3803 10.5555 10.7503 10.3083C11.1204 10.0611 11.4087 9.70967 11.579 9.29854C11.7493 8.8874 11.7939 8.435 11.7071 7.99855C11.6203 7.56209 11.406 7.16118 11.0913 6.84651C10.7766 6.53184 10.3757 6.31755 9.93927 6.23073C9.50281 6.14392 9.05041 6.18847 8.63927 6.35877C8.22814 6.52907 7.87674 6.81746 7.62951 7.18747C7.38227 7.55748 7.25031 7.99249 7.25031 8.4375C7.25031 9.03424 7.48736 9.60653 7.90932 10.0285C8.33128 10.4504 8.90357 10.6875 9.50031 10.6875ZM9.50031 15.1875C10.8731 15.1857 12.2065 14.7285 13.2916 13.8874C12.8846 13.251 12.3241 12.7273 11.6615 12.3645C10.9989 12.0017 10.2557 11.8116 9.50031 11.8116C8.74493 11.8116 8.0017 12.0017 7.33913 12.3645C6.67657 12.7273 6.11598 13.251 5.70906 13.8874C6.79246 14.7315 8.12694 15.1891 9.50031 15.1875Z" fill="#141415"/>
</g>
<defs>
<clipPath id="clip0_9975_941">
<rect width="18" height="18" fill="white" transform="translate(0.5)"/>
</clipPath>
</defs>
</svg>
