<svg width="20" height="21" viewBox="0 0 20 21" fill="none" xmlns="http://www.w3.org/2000/svg">
<path d="M9.37501 11.125V6.75001C9.37501 6.58425 9.44085 6.42527 9.55806 6.30806C9.67527 6.19085 9.83425 6.12501 10 6.12501C10.1658 6.12501 10.3247 6.19085 10.4419 6.30806C10.5592 6.42527 10.625 6.58425 10.625 6.75001V11.125C10.625 11.2908 10.5592 11.4497 10.4419 11.5669C10.3247 11.6842 10.1658 11.75 10 11.75C9.83425 11.75 9.67527 11.6842 9.55806 11.5669C9.44085 11.4497 9.37501 11.2908 9.37501 11.125ZM18.125 7.65235V13.3477C18.1255 13.5119 18.0934 13.6746 18.0305 13.8262C17.9676 13.9779 17.8752 14.1156 17.7586 14.2313L13.7313 18.2586C13.6156 18.3752 13.4779 18.4676 13.3262 18.5305C13.1746 18.5934 13.0119 18.6255 12.8477 18.625H7.15235C6.98814 18.6255 6.82546 18.5934 6.67377 18.5305C6.52208 18.4676 6.38441 18.3752 6.26876 18.2586L2.24141 14.2313C2.12483 14.1156 2.03241 13.9779 1.96951 13.8262C1.9066 13.6746 1.87448 13.5119 1.87501 13.3477V7.65235C1.87448 7.48814 1.9066 7.32546 1.96951 7.17377C2.03241 7.02208 2.12483 6.88441 2.24141 6.76876L6.26876 2.74141C6.38441 2.62483 6.52208 2.53241 6.67377 2.46951C6.82546 2.4066 6.98814 2.37448 7.15235 2.37501H12.8477C13.0119 2.37448 13.1746 2.4066 13.3262 2.46951C13.4779 2.53241 13.6156 2.62483 13.7313 2.74141L17.7586 6.76876C17.8752 6.88441 17.9676 7.02208 18.0305 7.17377C18.0934 7.32546 18.1255 7.48814 18.125 7.65235ZM16.875 7.65235L12.8477 3.62501H7.15235L3.12501 7.65235V13.3477L7.15235 17.375H12.8477L16.875 13.3477V7.65235ZM10 13C9.81459 13 9.63333 13.055 9.47916 13.158C9.32499 13.261 9.20483 13.4074 9.13387 13.5787C9.06291 13.75 9.04435 13.9385 9.08052 14.1204C9.11669 14.3023 9.20598 14.4693 9.33709 14.6004C9.4682 14.7315 9.63525 14.8208 9.81711 14.857C9.99897 14.8932 10.1875 14.8746 10.3588 14.8036C10.5301 14.7327 10.6765 14.6125 10.7795 14.4584C10.8825 14.3042 10.9375 14.1229 10.9375 13.9375C10.9375 13.6889 10.8387 13.4504 10.6629 13.2746C10.4871 13.0988 10.2486 13 10 13Z" fill="#733A00"/>
</svg>
