<svg width="16" height="16" viewBox="0 0 16 16" fill="none" xmlns="http://www.w3.org/2000/svg">
<path d="M9.53625 9.07811L10.9737 9.79562C10.9056 10.1361 10.7215 10.4424 10.4527 10.6622C10.1839 10.8821 9.84723 11.0019 9.5 11.0012C8.30693 10.9999 7.16311 10.5254 6.31948 9.68176C5.47585 8.83813 5.00132 7.69431 5 6.50124C4.9999 6.15444 5.11998 5.81832 5.33979 5.55008C5.5596 5.28184 5.86557 5.09805 6.20562 5.02999L6.92312 6.46749L6.3125 7.37624C6.26687 7.44469 6.23883 7.52333 6.23087 7.60521C6.22292 7.68709 6.23528 7.76966 6.26687 7.84562C6.62462 8.69586 7.30101 9.37225 8.15125 9.72999C8.22743 9.76299 8.31063 9.77649 8.39334 9.76929C8.47605 9.76209 8.55567 9.73441 8.625 9.68874L9.53625 9.07811ZM14.5 8.00124C14.5002 9.12345 14.2099 10.2266 13.6574 11.2033C13.1048 12.1801 12.3087 12.9971 11.3467 13.5749C10.3847 14.1527 9.28942 14.4716 8.16759 14.5005C7.04575 14.5294 5.93553 14.2674 4.945 13.74L2.81687 14.4494C2.64068 14.5081 2.4516 14.5167 2.27083 14.474C2.09006 14.4313 1.92474 14.3392 1.79341 14.2078C1.66207 14.0765 1.56991 13.9112 1.52725 13.7304C1.48459 13.5496 1.49312 13.3606 1.55187 13.1844L2.26125 11.0562C1.79759 10.1845 1.53862 9.21861 1.504 8.23185C1.46937 7.24509 1.66 6.26341 2.06142 5.36132C2.46283 4.45924 3.06448 3.66046 3.8207 3.02561C4.57691 2.39076 5.46782 1.93654 6.42579 1.69741C7.38376 1.45829 8.38362 1.44054 9.34948 1.64553C10.3153 1.85052 11.2218 2.27285 12.0001 2.88047C12.7783 3.48809 13.4079 4.26502 13.8411 5.1523C14.2743 6.03958 14.4996 7.01387 14.5 8.00124ZM12 9.50124C12.0001 9.40835 11.9743 9.31728 11.9255 9.23824C11.8767 9.15919 11.8068 9.09531 11.7237 9.05374L9.72375 8.05374C9.64502 8.01451 9.55734 7.99674 9.46955 8.00223C9.38177 8.00771 9.29698 8.03626 9.22375 8.08499L8.30562 8.69749C7.88416 8.4658 7.53732 8.11896 7.30562 7.69749L7.91812 6.77937C7.96685 6.70614 7.9954 6.62135 8.00089 6.53356C8.00637 6.44577 7.98861 6.35809 7.94937 6.27937L6.94937 4.27937C6.90793 4.19566 6.84386 4.12524 6.76443 4.07608C6.68501 4.02692 6.59341 4.001 6.5 4.00124C5.83696 4.00124 5.20107 4.26463 4.73223 4.73347C4.26339 5.20231 4 5.8382 4 6.50124C4.00165 7.95942 4.58165 9.35741 5.61274 10.3885C6.64383 11.4196 8.04182 11.9996 9.5 12.0012C9.8283 12.0012 10.1534 11.9366 10.4567 11.8109C10.76 11.6853 11.0356 11.5012 11.2678 11.269C11.4999 11.0369 11.6841 10.7613 11.8097 10.4579C11.9353 10.1546 12 9.82955 12 9.50124Z" fill="#141415"/>
</svg>
