<svg width="20" height="20" viewBox="0 0 20 20" fill="none" xmlns="http://www.w3.org/2000/svg">
<path d="M17.7167 5.39052C17.6788 5.29681 17.6187 5.2137 17.5416 5.14831C17.4645 5.08292 17.3727 5.03721 17.2741 5.01508C17.1755 4.99296 17.0729 4.99509 16.9753 5.02129C16.8777 5.04749 16.7879 5.09698 16.7136 5.16552L13.5651 8.07098L12.219 7.78192L11.93 6.43583L14.8354 3.28739C14.904 3.21309 14.9535 3.12327 14.9797 3.02564C15.0059 2.92801 15.008 2.82549 14.9859 2.72685C14.9638 2.62822 14.918 2.53642 14.8526 2.45934C14.7873 2.38225 14.7041 2.32218 14.6104 2.28427C13.7565 1.93882 12.8308 1.80839 11.9146 1.90444C10.9984 2.00048 10.1199 2.32006 9.35614 2.83509C8.59238 3.35012 7.96681 4.04484 7.53438 4.85821C7.10194 5.67158 6.87589 6.57871 6.87607 7.49989C6.87506 8.27777 7.03464 9.04747 7.34482 9.76083L2.64091 13.828C2.62919 13.8374 2.61825 13.8483 2.60732 13.8585C2.13842 14.3274 1.875 14.9633 1.875 15.6265C1.875 15.9548 1.93967 16.2799 2.06532 16.5833C2.19097 16.8866 2.37514 17.1622 2.60732 17.3944C2.83949 17.6266 3.11512 17.8108 3.41847 17.9364C3.72182 18.0621 4.04694 18.1267 4.37529 18.1267C5.0384 18.1267 5.67436 17.8633 6.14325 17.3944C6.15341 17.3843 6.16435 17.3725 6.17372 17.3616L10.2401 12.6561C11.0967 13.0322 12.0336 13.1886 12.9658 13.1113C13.8981 13.034 14.7964 12.7254 15.5794 12.2135C16.3623 11.7015 17.0053 11.0024 17.4499 10.1794C17.8946 9.35632 18.127 8.43537 18.1261 7.49989C18.1273 6.77691 17.9883 6.06056 17.7167 5.39052ZM12.5011 11.8749C11.7613 11.8739 11.0338 11.6857 10.3862 11.328C10.2608 11.2587 10.1153 11.2346 9.97421 11.2598C9.83312 11.285 9.70496 11.3579 9.61122 11.4663L5.24404 16.5241C5.00771 16.7486 4.69302 16.872 4.36707 16.8678C4.04112 16.8636 3.72969 16.7323 3.49919 16.5018C3.26869 16.2713 3.13735 15.9598 3.13317 15.6339C3.129 15.3079 3.25232 14.9932 3.47685 14.7569L8.53075 10.3905C8.63936 10.2967 8.71238 10.1684 8.73756 10.0272C8.76274 9.8859 8.73854 9.74027 8.66904 9.61474C8.27062 8.89414 8.08365 8.07574 8.12961 7.25363C8.17557 6.43151 8.4526 5.63905 8.92885 4.96735C9.4051 4.29566 10.0612 3.772 10.8218 3.45657C11.5824 3.14114 12.4166 3.04676 13.2284 3.18427L10.7909 5.82567C10.7231 5.89925 10.6739 5.98803 10.6476 6.08455C10.6212 6.18108 10.6184 6.28252 10.6393 6.38036L11.0815 8.43739C11.1068 8.55504 11.1655 8.66289 11.2506 8.74798C11.3357 8.83307 11.4436 8.89179 11.5612 8.91708L13.6198 9.35927C13.7177 9.38025 13.8191 9.37744 13.9156 9.35106C14.0122 9.32469 14.1009 9.27553 14.1745 9.2077L16.8159 6.7702C16.9212 7.39755 16.8886 8.04031 16.7203 8.65378C16.552 9.26724 16.2521 9.83669 15.8415 10.3225C15.4308 10.8083 14.9193 11.1989 14.3424 11.467C13.7655 11.735 13.1372 11.8742 12.5011 11.8749Z" fill="#888991"/>
</svg>
