<svg width="259" height="316" viewBox="0 0 259 316" fill="none" xmlns="http://www.w3.org/2000/svg">
<g clip-path="url(#clip0_2319_29464)">
<rect width="259" height="316" rx="19" fill="#F7E3FE"/>
<path d="M36.1045 238.58C16.3614 213.11 7.54493 180.84 11.5946 148.869C15.6443 116.898 32.2285 87.8458 57.6987 68.1027C83.169 48.3596 115.439 39.5431 147.41 43.5928C179.38 47.6425 208.433 64.2266 228.176 89.6969L132.14 164.138L36.1045 238.58Z" fill="url(#paint0_linear_2319_29464)"/>
<path d="M52.463 245.623C44.6213 231.726 39.5936 216.421 37.6669 200.581C35.7402 184.741 36.9524 168.676 41.2341 153.305C45.5158 137.933 52.7832 123.555 62.6215 110.992C72.4597 98.4295 84.6761 87.9274 98.573 80.0856C112.47 72.2439 127.775 67.2162 143.615 65.2896C159.456 63.3629 175.52 64.575 190.891 68.8567C206.263 73.1385 220.641 80.4059 233.204 90.2441C245.767 100.082 256.269 112.299 264.11 126.196L167.49 180.716C166.808 179.507 165.895 178.445 164.802 177.589C163.71 176.734 162.459 176.101 161.122 175.729C159.786 175.357 158.388 175.251 157.011 175.419C155.633 175.586 154.302 176.024 153.093 176.706C151.885 177.388 150.822 178.301 149.967 179.394C149.111 180.486 148.479 181.737 148.106 183.074C147.734 184.411 147.629 185.808 147.796 187.185C147.964 188.563 148.401 189.894 149.083 191.103L52.463 245.623Z" fill="url(#paint1_linear_2319_29464)"/>
<path d="M21 27L22.0804 29.9196L25 31L22.0804 32.0804L21 35L19.9196 32.0804L17 31L19.9196 29.9196L21 27Z" fill="#F1DBFF"/>
<path d="M19 88L20.0804 90.9196L23 92L20.0804 93.0804L19 96L17.9196 93.0804L15 92L17.9196 90.9196L19 88Z" fill="#F1DBFF"/>
<path d="M39 65L40.0804 67.9196L43 69L40.0804 70.0804L39 73L37.9196 70.0804L35 69L37.9196 67.9196L39 65Z" fill="#F1DBFF"/>
<path d="M39 35L40.0804 37.9196L43 39L40.0804 40.0804L39 43L37.9196 40.0804L35 39L37.9196 37.9196L39 35Z" fill="#F1DBFF"/>
<path d="M83 27L84.8906 32.1094L90 34L84.8906 35.8906L83 41L81.1094 35.8906L76 34L81.1094 32.1094L83 27Z" fill="#F1DBFF"/>
<path d="M215 30L217.971 38.029L226 41L217.971 43.971L215 52L212.029 43.971L204 41L212.029 38.029L215 30Z" fill="#F2DAFF"/>
</g>
<defs>
<linearGradient id="paint0_linear_2319_29464" x1="83.1477" y1="66.0149" x2="62.7213" y2="209.511" gradientUnits="userSpaceOnUse">
<stop stop-color="#F1DBFF"/>
<stop offset="1" stop-color="#F7E3FE"/>
</linearGradient>
<linearGradient id="paint1_linear_2319_29464" x1="89.2277" y1="74.2304" x2="154.64" y2="166.036" gradientUnits="userSpaceOnUse">
<stop stop-color="#F1D8FF"/>
<stop offset="1" stop-color="#F6E2FE"/>
</linearGradient>
<clipPath id="clip0_2319_29464">
<rect width="259" height="316" fill="white"/>
</clipPath>
</defs>
</svg>
